<?xml version="1.0" encoding="utf-8"?><svg version="1.1" id="dLayer_1" xmlns="http://www.w3.org/2000/svg" x="0" y="0" viewBox="0 0 137 28" xml:space="preserve" width="137" height="28"><style>.dst0{enable-background:new}.dst1{fill:#fefefe}.dst2{fill:#65e496}.dst3{fill:#44444f}</style><g class="dst0"><path class="dst1" d="M40.8 23.8V3.9h7c2.4 0 4.2.5 5.5 1.4 1.2.9 1.9 2.3 1.9 4.1 0 1-.3 1.8-.8 2.6-.5.7-1.2 1.3-2.1 1.6 1 .3 1.8.8 2.4 1.5s.9 1.7.9 2.8c0 1.9-.6 3.4-1.8 4.3-1.2 1-3 1.5-5.2 1.5h-7.8zm4.1-11.5h3c2.1 0 3.1-.9 3.1-2.5 0-.9-.3-1.6-.8-1.9-.5-.4-1.4-.6-2.5-.6h-2.9v5zm0 2.8v5.4h3.5c1 0 1.7-.2 2.3-.7.5-.5.8-1.1.8-1.9 0-1.8-.9-2.7-2.8-2.8h-3.8zM74.8 3.9V17c0 2.2-.7 3.9-2 5.2-1.4 1.3-3.2 1.9-5.6 1.9-2.3 0-4.2-.6-5.5-1.8s-2.1-2.9-2.1-5.1V3.9h4.1V17c0 1.3.3 2.3.9 2.9.6.6 1.5.9 2.6.9 2.3 0 3.5-1.2 3.5-3.6V3.9h4.1zM85.6 15.8l-2.1 2.3v5.7h-4.1V3.9h4.1v9l1.8-2.5 5.1-6.5h5l-7.1 8.8 7.3 11.1h-4.9l-5.1-8z"/></g><g class="dst0"><path class="dst2" d="M110.2 15.2h-7.9v5.3h9.2v3.3H98.2V3.9h13.3v3.3h-9.2V12h7.9v3.2zM127.1 15.2h-7.9v5.3h9.2v3.3h-13.3V3.9h13.3v3.3h-9.2V12h7.9v3.2z"/></g><g><path class="dst2" d="M28 28L0 0h28v28z"/><path class="dst3" d="M28 0L0 28V0h28z"/></g></svg>