<?xml version="1.0" encoding="utf-8"?><svg xmlns="http://www.w3.org/2000/svg" width="269" height="409" viewBox="0 0 269 409"><defs><clipPath id="fa"><path d="M5 0h258.937a5 5 0 015 5v399a5 5 0 01-5 5H5a5 5 0 01-5-5V5a5 5 0 015-5z"/></clipPath></defs><path fill="#44444f" d="M5 0h258.937a5 5 0 015 5v399a5 5 0 01-5 5H5a5 5 0 01-5-5V5a5 5 0 015-5z"/><g clip-path="url(#fa)"><path fill="#65e496" d="M250.672 294.17l105.655-61a5 5 0 115 8.66l-105.655 61a5 5 0 11-5-8.66z"/></g><g clip-path="url(#fa)"><path fill="#65e496" d="M250.672 267.17l105.655-61a5 5 0 115 8.66l-105.655 61a5 5 0 11-5-8.66z"/></g><g clip-path="url(#fa)"><path fill="#3d3d47" d="M0 0h37.906v409H0z"/></g></svg>