<?xml version="1.0" encoding="utf-8"?><svg viewBox="0 0 445 639" xmlns="http://www.w3.org/2000/svg" xmlns:xlink="http://www.w3.org/1999/xlink"><style>:root>svg{display:none}:root>svg:target{display:block}</style><svg viewBox="0 0 445 639" id="book" xmlns="http://www.w3.org/2000/svg"><defs><clipPath id="aa"><path d="M5 0h434.969a5 5 0 015 5v629a5 5 0 01-5 5H5a5 5 0 01-5-5V5a5 5 0 015-5z"/></clipPath></defs><path fill="#44444f" d="M5 0h434.969a5 5 0 015 5v629a5 5 0 01-5 5H5a5 5 0 01-5-5V5a5 5 0 015-5z"/><g clip-path="url(#aa)"><path fill="#65e496" d="M376.051 536.046l165.419-165.39c12.008-12.007 31.478-12.007 43.486 0 12.008 12.005 12.008 31.472 0 43.478L419.537 579.526c-12.008 12.005-31.478 12.005-43.486 0-12.008-12.007-12.008-31.473 0-43.48z"/></g><g clip-path="url(#aa)"><path fill="#65e496" d="M295.258 490.23l165.419-165.39c12.008-12.006 31.478-12.006 43.486 0 12.009 12.007 12.009 31.473 0 43.48L338.745 533.71c-12.009 12.007-31.478 12.007-43.487 0-12.008-12.006-12.008-31.473 0-43.48z"/></g><g clip-path="url(#aa)"><path fill="#3d3d47" d="M0 0h62.719v639H0z"/></g></svg><svg viewBox="0 0 137 28" id="logo" xmlns="http://www.w3.org/2000/svg"><text fill="#fefefe" dominant-baseline="text-before-edge" font-family="'RobotoSlab','RobotoSlab-Bold'" font-size="28" font-style="none" font-weight="700" transform="translate(39 3)"><tspan style="font-kerning:normal" letter-spacing="1.12">BUK</tspan><tspan style="font-kerning:normal" fill="#65e496" letter-spacing="1.12">EE</tspan></text><path fill="#65e496" d="M28 27.999l-28-28h28z"/><path fill="#44444f" d="M28 0L0 27.998v-28z"/></svg><svg version="1.1" id="logo-1" x="0" y="0" viewBox="0 0 137 28" xml:space="preserve" xmlns="http://www.w3.org/2000/svg"><style>.cst0{enable-background:new}.cst1{fill:#fefefe}.cst2{fill:#65e496}.cst3{fill:#44444f}</style><g class="cst0"><path class="cst1" d="M47.6 4.1c2.3 0 4.2.5 5.5 1.4s2 2.3 2 4.1c0 .9-.2 1.7-.7 2.5-.5.7-1.2 1.3-2.1 1.6 1.2.3 2.1.8 2.7 1.6.6.8.9 1.8.9 2.9 0 1.9-.6 3.3-1.9 4.3S51 24 48.7 24h-9.8v-2.4l2.1-.4V6.9l-2.1-.4V4.1h8.7zm-2.7 8.3h2.9c1.1 0 1.9-.2 2.5-.7s.9-1.1.9-1.9c0-.9-.3-1.6-.9-2-.6-.4-1.4-.7-2.6-.7H45v5.3zm0 2.8v5.7h3.7c1.1 0 1.9-.2 2.4-.7.6-.5.8-1.1.8-2 0-1-.2-1.7-.7-2.2-.5-.5-1.2-.8-2.2-.8h-4zM66.4 4.1v2.4l-2.1.4v10.4c0 1.3.4 2.3 1.1 2.9.7.7 1.7 1 2.9 1s2.2-.3 2.9-1 1.1-1.6 1.1-3V6.9l-2.1-.4V4.1h8.2v2.4l-2.1.4v10.4c0 2.2-.7 4-2.2 5.2-1.5 1.2-3.4 1.8-5.8 1.8s-4.3-.6-5.8-1.8-2.2-2.9-2.2-5.2V6.9l-2.1-.4V4.1h8.2zM80.7 21.6l2.1-.4V6.9l-2.1-.4V4.1h8.1v2.4l-2 .4v5.3h1.7l3.8-5.6-1.2-.2V4.1H99v2.4l-2.2.4-4.8 6.5 5.5 7.9 2 .3V24h-7.9v-2.4l1.2-.2-3.8-5.7h-2.2v5.5l2 .4V24h-8.1v-2.4z"/></g><g class="cst0"><path class="cst2" d="M114.7 15.3H108V21h6.4l.2-2.4h3V24h-15.8v-2.4l2.1-.4V6.9l-2.1-.4V4.1h15.7v5.5h-3.1l-.2-2.4h-6.4v5h6.7v3.1zM133.7 15.3H127V21h6.4l.2-2.4h3V24h-15.8v-2.4l2.1-.4V6.9l-2.1-.4V4.1h15.7v5.5h-3.1l-.2-2.4h-6.4v5h6.7v3.1z"/></g><g><path class="cst2" d="M28 28L0 0h28v28z"/><path class="cst3" d="M28 0L0 28V0h28z"/></g></svg><svg version="1.1" id="logo-2" x="0" y="0" viewBox="0 0 137 28" xml:space="preserve" xmlns="http://www.w3.org/2000/svg"><style>.dst0{enable-background:new}.dst1{fill:#fefefe}.dst2{fill:#65e496}.dst3{fill:#44444f}</style><g class="dst0"><path class="dst1" d="M40.8 23.8V3.9h7c2.4 0 4.2.5 5.5 1.4 1.2.9 1.9 2.3 1.9 4.1 0 1-.3 1.8-.8 2.6-.5.7-1.2 1.3-2.1 1.6 1 .3 1.8.8 2.4 1.5s.9 1.7.9 2.8c0 1.9-.6 3.4-1.8 4.3-1.2 1-3 1.5-5.2 1.5h-7.8zm4.1-11.5h3c2.1 0 3.1-.9 3.1-2.5 0-.9-.3-1.6-.8-1.9-.5-.4-1.4-.6-2.5-.6h-2.9v5zm0 2.8v5.4h3.5c1 0 1.7-.2 2.3-.7.5-.5.8-1.1.8-1.9 0-1.8-.9-2.7-2.8-2.8h-3.8zM74.8 3.9V17c0 2.2-.7 3.9-2 5.2-1.4 1.3-3.2 1.9-5.6 1.9-2.3 0-4.2-.6-5.5-1.8s-2.1-2.9-2.1-5.1V3.9h4.1V17c0 1.3.3 2.3.9 2.9.6.6 1.5.9 2.6.9 2.3 0 3.5-1.2 3.5-3.6V3.9h4.1zM85.6 15.8l-2.1 2.3v5.7h-4.1V3.9h4.1v9l1.8-2.5 5.1-6.5h5l-7.1 8.8 7.3 11.1h-4.9l-5.1-8z"/></g><g class="dst0"><path class="dst2" d="M110.2 15.2h-7.9v5.3h9.2v3.3H98.2V3.9h13.3v3.3h-9.2V12h7.9v3.2zM127.1 15.2h-7.9v5.3h9.2v3.3h-13.3V3.9h13.3v3.3h-9.2V12h7.9v3.2z"/></g><g><path class="dst2" d="M28 28L0 0h28v28z"/><path class="dst3" d="M28 0L0 28V0h28z"/></g></svg><svg version="1.1" id="logo-footer" x="0" y="0" viewBox="0 0 137 28" xml:space="preserve" xmlns="http://www.w3.org/2000/svg"><style>.est0{enable-background:new}.est1{fill:#fefefe}.est2{fill:#65e496}.est3{fill:#80809b}</style><g class="est0"><path class="est1" d="M47.6 4.1c2.3 0 4.2.5 5.5 1.4s2 2.3 2 4.1c0 .9-.2 1.7-.7 2.5-.5.7-1.2 1.3-2.1 1.6 1.2.3 2.1.8 2.7 1.6.6.8.9 1.8.9 2.9 0 1.9-.6 3.3-1.9 4.3S51 24 48.7 24h-9.8v-2.4l2.1-.4V6.9l-2.1-.4V4.1h8.7zm-2.7 8.3h2.9c1.1 0 1.9-.2 2.5-.7s.9-1.1.9-1.9c0-.9-.3-1.6-.9-2-.6-.4-1.4-.7-2.6-.7H45v5.3zm0 2.8v5.7h3.7c1.1 0 1.9-.2 2.4-.7.6-.5.8-1.1.8-2 0-1-.2-1.7-.7-2.2-.5-.5-1.2-.8-2.2-.8h-4zM66.4 4.1v2.4l-2.1.4v10.4c0 1.3.4 2.3 1.1 2.9.7.7 1.7 1 2.9 1s2.2-.3 2.9-1 1.1-1.6 1.1-3V6.9l-2.1-.4V4.1h8.2v2.4l-2.1.4v10.4c0 2.2-.7 4-2.2 5.2-1.5 1.2-3.4 1.8-5.8 1.8s-4.3-.6-5.8-1.8-2.2-2.9-2.2-5.2V6.9l-2.1-.4V4.1h8.2zM80.7 21.6l2.1-.4V6.9l-2.1-.4V4.1h8.1v2.4l-2 .4v5.3h1.7l3.8-5.6-1.2-.2V4.1H99v2.4l-2.2.4-4.8 6.5 5.5 7.9 2 .3V24h-7.9v-2.4l1.2-.2-3.8-5.7h-2.2v5.5l2 .4V24h-8.1v-2.4z"/></g><g class="est0"><path class="est2" d="M114.7 15.3H108V21h6.4l.2-2.4h3V24h-15.8v-2.4l2.1-.4V6.9l-2.1-.4V4.1h15.7v5.5h-3.1l-.2-2.4h-6.4v5h6.7v3.1zM133.7 15.3H127V21h6.4l.2-2.4h3V24h-15.8v-2.4l2.1-.4V6.9l-2.1-.4V4.1h15.7v5.5h-3.1l-.2-2.4h-6.4v5h6.7v3.1z"/></g><g><path class="est2" d="M28 28L0 0h28v28z"/><path class="est3" d="M28 0L0 28V0h28z"/></g></svg><svg viewBox="0 0 269 409" id="small_book_img" xmlns="http://www.w3.org/2000/svg"><defs><clipPath id="fa"><path d="M5 0h258.937a5 5 0 015 5v399a5 5 0 01-5 5H5a5 5 0 01-5-5V5a5 5 0 015-5z"/></clipPath></defs><path fill="#44444f" d="M5 0h258.937a5 5 0 015 5v399a5 5 0 01-5 5H5a5 5 0 01-5-5V5a5 5 0 015-5z"/><g clip-path="url(#fa)"><path fill="#65e496" d="M250.672 294.17l105.655-61a5 5 0 115 8.66l-105.655 61a5 5 0 11-5-8.66z"/></g><g clip-path="url(#fa)"><path fill="#65e496" d="M250.672 267.17l105.655-61a5 5 0 115 8.66l-105.655 61a5 5 0 11-5-8.66z"/></g><g clip-path="url(#fa)"><path fill="#3d3d47" d="M0 0h37.906v409H0z"/></g></svg></svg>