<svg width="447" height="640" xmlns="http://www.w3.org/2000/svg" xmlns:xlink="http://www.w3.org/1999/xlink" xmlns:svgjs="http://svgjs.com/svgjs" viewBox="214 258 447 640"><svg width="446" height="640" xmlns="http://www.w3.org/2000/svg" xmlns:xlink="http://www.w3.org/1999/xlink" xmlns:svgjs="http://svgjs.com/svgjs" viewBox="0.167 0 445.665 640" fill="#44444f" x="214" y="258"><svg xmlns="http://www.w3.org/2000/svg" xmlns:xlink="http://www.w3.org/1999/xlink" width="446" height="640" viewBox="2 2 444.969 639"><path paint-order="stroke fill markers" fill-rule="evenodd" d="M7 2h434.969a5 5 0 0 1 5 5v629a5 5 0 0 1-5 5H7a5 5 0 0 1-5-5V7a5 5 0 0 1 5-5z"/></svg></svg><svg width="80" height="228" xmlns="http://www.w3.org/2000/svg" xmlns:xlink="http://www.w3.org/1999/xlink" xmlns:svgjs="http://svgjs.com/svgjs" viewBox="0 74.007 80 79.986" fill="#65e496" x="581" y="620"><svg xmlns="http://www.w3.org/2000/svg" xmlns:xlink="http://www.w3.org/1999/xlink" width="80" height="228" viewBox="4.045 4.651 226.918 226.879"><path paint-order="stroke fill markers" fill-rule="evenodd" d="M13.051 179.046L178.47 13.656c12.008-12.007 31.478-12.007 43.486 0 12.008 12.005 12.008 31.472 0 43.478L56.537 222.526c-12.008 12.005-31.478 12.005-43.486 0-12.008-12.007-12.008-31.473 0-43.48z"/></svg></svg><svg width="80" height="186" xmlns="http://www.w3.org/2000/svg" xmlns:xlink="http://www.w3.org/1999/xlink" xmlns:svgjs="http://svgjs.com/svgjs" viewBox="0 53.007 80 79.987" fill="#65e496" x="581" y="620"><svg xmlns="http://www.w3.org/2000/svg" width="80" height="186" viewBox="4.252 4.835 226.918 226.88"><path paint-order="stroke fill markers" fill-rule="evenodd" d="M13.258 179.23L178.677 13.84c12.008-12.006 31.478-12.006 43.486 0 12.009 12.007 12.009 31.473 0 43.48L56.745 222.71c-12.009 12.007-31.478 12.007-43.487 0-12.008-12.006-12.008-31.473 0-43.48z"/></svg></svg></svg>