<?xml version="1.0" encoding="utf-8"?>
<!-- Generator: Adobe Illustrator 24.0.1, SVG Export Plug-In . SVG Version: 6.00 Build 0)  -->
<svg version="1.1" id="Layer_1" xmlns="http://www.w3.org/2000/svg" xmlns:xlink="http://www.w3.org/1999/xlink" x="0px" y="0px"
	 viewBox="0 0 137 28" style="enable-background:new 0 0 137 28;" xml:space="preserve">
<style type="text/css">
	.st0{enable-background:new    ;}
	.st1{fill:#FEFEFE;}
	.st2{fill:#65E496;}
	.st3{fill:#44444F;}
</style>
<g>
	<g>
		<g class="st0">
			<path class="st1" d="M40.8,23.8V3.9h7c2.4,0,4.2,0.5,5.5,1.4c1.2,0.9,1.9,2.3,1.9,4.1c0,1-0.3,1.8-0.8,2.6
				c-0.5,0.7-1.2,1.3-2.1,1.6c1,0.3,1.8,0.8,2.4,1.5s0.9,1.7,0.9,2.8c0,1.9-0.6,3.4-1.8,4.3c-1.2,1-3,1.5-5.2,1.5H40.8z M44.9,12.3
				h3c2.1,0,3.1-0.9,3.1-2.5c0-0.9-0.3-1.6-0.8-1.9c-0.5-0.4-1.4-0.6-2.5-0.6h-2.9V12.3z M44.9,15.1v5.4h3.5c1,0,1.7-0.2,2.3-0.7
				c0.5-0.5,0.8-1.1,0.8-1.9c0-1.8-0.9-2.7-2.8-2.8H44.9z"/>
			<path class="st1" d="M74.8,3.9V17c0,2.2-0.7,3.9-2,5.2c-1.4,1.3-3.2,1.9-5.6,1.9c-2.3,0-4.2-0.6-5.5-1.8s-2.1-2.9-2.1-5.1V3.9
				h4.1V17c0,1.3,0.3,2.3,0.9,2.9c0.6,0.6,1.5,0.9,2.6,0.9c2.3,0,3.5-1.2,3.5-3.6V3.9H74.8z"/>
			<path class="st1" d="M85.6,15.8l-2.1,2.3v5.7h-4.1V3.9h4.1v9l1.8-2.5l5.1-6.5h5l-7.1,8.8l7.3,11.1h-4.9L85.6,15.8z"/>
		</g>
		<g class="st0">
			<path class="st2" d="M110.2,15.2h-7.9v5.3h9.2v3.3H98.2V3.9h13.3v3.3h-9.2V12h7.9V15.2z"/>
			<path class="st2" d="M127.1,15.2h-7.9v5.3h9.2v3.3h-13.3V3.9h13.3v3.3h-9.2V12h7.9V15.2z"/>
		</g>
	</g>
</g>
<g>
	<g>
		<path class="st2" d="M28,28L0,0h28V28z"/>
	</g>
	<g>
		<path class="st3" d="M28,0L0,28V0L28,0z"/>
	</g>
</g>
</svg>
